<svg viewBox="0 0 550 550" fill="none" xmlns="http://www.w3.org/2000/svg">
<g clip-path="url(#clip0_2031_3419)">
<path d="M253.023 0C252.863 0 219.656 32.7708 179.254 72.7833L105.76 145.567L117.494 157.323L129.227 169.056L64.625 233.017L0 297.023L41.9375 339.373C66.2285 363.902 90.5354 388.415 114.858 412.912L145.819 444.056L157.46 432.69C163.877 426.433 169.263 421.277 169.469 421.277C169.652 421.277 198.481 450.244 233.498 485.627L297.229 550L301.515 545.829C306.785 540.673 416.258 432.392 432.529 416.213L444.446 404.387L432.942 392.631C426.617 386.169 421.483 380.715 421.575 380.485C421.644 380.279 450.542 351.61 485.788 316.708C521.033 281.829 549.954 253.092 550.023 252.885C550.138 252.61 467.133 168.46 410.071 110.962L404.479 105.417L392.906 116.99C386.513 123.36 381.058 128.471 380.76 128.379C380.463 128.265 351.656 99.3437 316.754 64.0979C295.604 42.6389 274.36 21.2727 253.023 0V0ZM211.36 168.827C213.446 169.698 393.571 274.427 393.708 274.863C393.777 275.16 352.894 299.062 302.844 328.029C272.359 345.722 241.834 363.345 211.269 380.898C210.833 381.035 210.673 351.885 210.673 274.817C210.673 190.025 210.833 168.621 211.36 168.827V168.827Z" fill="#52B54B"/>
</g>
<defs>
<clipPath id="clip0_2031_3419">
<rect width="550" height="550" fill="white"/>
</clipPath>
</defs>
</svg>
