<svg width="1101" height="550" viewBox="0 0 1101 550" fill="none" xmlns="http://www.w3.org/2000/svg">
<path d="M803.023 0C802.863 0 769.656 32.7708 729.254 72.7833L655.76 145.567L667.494 157.323L679.227 169.056L614.625 233.017L550 297.023L591.938 339.373C616.228 363.902 640.535 388.415 664.858 412.912L695.819 444.056L707.46 432.69C713.877 426.433 719.263 421.277 719.469 421.277C719.652 421.277 748.481 450.244 783.498 485.627L847.229 550L851.515 545.829C856.785 540.673 966.258 432.392 982.529 416.212L994.446 404.387L982.942 392.631C976.617 386.169 971.483 380.715 971.575 380.485C971.644 380.279 1000.54 351.61 1035.79 316.708C1071.03 281.829 1099.95 253.092 1100.02 252.885C1100.14 252.61 1017.13 168.46 960.071 110.962L954.479 105.417L942.906 116.99C936.513 123.36 931.058 128.471 930.76 128.379C930.463 128.265 901.656 99.3437 866.754 64.0979C845.604 42.6389 824.36 21.2727 803.023 0V0ZM761.36 168.827C763.446 169.698 943.571 274.427 943.708 274.862C943.777 275.16 902.894 299.062 852.844 328.029C822.359 345.722 791.834 363.345 761.269 380.898C760.833 381.035 760.673 351.885 760.673 274.817C760.673 190.025 760.833 168.621 761.36 168.827Z" fill="#52B54B"/>
<path d="M275 216.58C250.845 216.58 173.098 344.741 184.951 366.378C196.804 388.016 353.327 387.78 365.05 366.378C376.773 344.977 299.191 216.591 275 216.58Z" fill="url(#paint0_linear_2056_3428)"/>
<path d="M275 25C202.251 25 -32.0436 411.158 3.68088 476.371C39.4053 541.585 511.055 540.833 546.39 476.371C581.724 411.91 347.82 25 275 25ZM452.866 419.785C429.715 462.039 120.698 462.512 97.2877 419.785C73.8771 377.057 227.387 124.035 275.071 124.035C322.755 124.035 476.016 377.519 452.866 419.785Z" fill="url(#paint1_linear_2056_3428)"/>
<defs>
<linearGradient id="paint0_linear_2056_3428" x1="102.76" y1="229.129" x2="536.049" y2="504.29" gradientUnits="userSpaceOnUse">
<stop stop-color="#AA5CC3"/>
<stop offset="1" stop-color="#00A4DC"/>
</linearGradient>
<linearGradient id="paint1_linear_2056_3428" x1="102.759" y1="229.129" x2="536.049" y2="504.29" gradientUnits="userSpaceOnUse">
<stop stop-color="#AA5CC3"/>
<stop offset="1" stop-color="#00A4DC"/>
</linearGradient>
</defs>
</svg>
